<?xml version="1.0" standalone="no"?>
<!DOCTYPE svg PUBLIC "-//W3C//DTD SVG 20010904//EN"
 "http://www.w3.org/TR/2001/REC-SVG-20010904/DTD/svg10.dtd">
<svg version="1.0" xmlns="http://www.w3.org/2000/svg"
 width="890.000000pt" height="1033.000000pt" viewBox="0 0 890.000000 1033.000000"
 preserveAspectRatio="xMidYMid meet">

<g transform="translate(0.000000,1033.000000) scale(0.100000,-0.100000)"
fill="#000000" stroke="none">
<path d="M3940 10180 c0 -6 -26 -10 -59 -10 -33 0 -63 -4 -66 -10 -3 -5 -21
-10 -40 -10 -18 0 -53 -11 -76 -25 -24 -14 -51 -25 -59 -25 -18 0 -243 -112
-269 -132 -9 -8 -33 -23 -54 -33 -21 -11 -45 -28 -54 -37 -9 -10 -25 -18 -35
-18 -11 0 -23 -11 -28 -25 -11 -29 -44 -78 -78 -116 -27 -30 -82 -134 -82
-154 0 -8 -9 -30 -20 -50 -11 -20 -20 -51 -20 -70 0 -18 -4 -37 -10 -40 -5 -3
-10 -20 -10 -36 0 -16 -7 -41 -16 -54 -9 -15 -15 -41 -13 -67 1 -24 -3 -53 -9
-65 -7 -12 -12 -64 -12 -120 0 -55 -5 -104 -10 -109 -7 -7 -9 -84 -6 -225 4
-226 11 -306 29 -327 5 -7 10 -30 9 -51 -1 -24 8 -56 23 -85 14 -26 25 -53 25
-61 0 -8 9 -30 20 -50 11 -20 20 -42 20 -49 0 -17 73 -162 93 -185 8 -9 24
-37 35 -62 12 -25 28 -52 37 -59 8 -7 15 -18 15 -24 0 -7 16 -28 36 -47 l36
-34 -7 -280 c-10 -474 -17 -580 -39 -604 -12 -13 -31 -21 -51 -21 -17 0 -40
-7 -51 -15 -10 -8 -27 -15 -37 -15 -9 0 -25 -4 -35 -9 -9 -5 -33 -16 -53 -25
-19 -8 -43 -24 -54 -36 -10 -11 -23 -20 -30 -20 -6 0 -24 -14 -41 -31 -52 -55
-95 -77 -165 -82 -35 -2 -74 -7 -86 -11 -18 -7 -29 2 -71 56 -51 64 -92 96
-214 162 -82 45 -133 57 -265 63 -125 6 -180 -5 -292 -59 -123 -59 -247 -184
-300 -303 -52 -117 -61 -158 -61 -287 0 -117 -2 -128 -18 -128 -25 0 -134 -54
-151 -74 -7 -9 -19 -16 -26 -16 -6 0 -20 -9 -30 -20 -10 -11 -23 -20 -28 -20
-6 0 -38 -27 -73 -60 -34 -33 -67 -60 -73 -60 -14 0 -131 -115 -131 -129 0 -5
-10 -22 -23 -38 -13 -15 -27 -35 -30 -43 -4 -8 -23 -35 -42 -60 -19 -25 -39
-55 -44 -67 -6 -11 -14 -24 -19 -27 -12 -7 -132 -250 -137 -278 -3 -12 -9 -26
-15 -32 -5 -5 -10 -27 -10 -47 0 -21 -4 -41 -10 -44 -5 -3 -10 -17 -10 -30 0
-13 -4 -27 -10 -30 -5 -3 -10 -23 -10 -44 0 -20 -5 -42 -12 -49 -6 -6 -10 -32
-9 -58 1 -28 -5 -56 -14 -70 -8 -13 -15 -43 -15 -68 0 -25 -4 -48 -10 -51 -6
-4 -10 -63 -10 -145 0 -82 -4 -141 -10 -145 -13 -8 -13 -302 0 -310 13 -8 13
-192 0 -200 -6 -3 -10 -15 -10 -25 0 -10 -11 -40 -25 -66 -14 -26 -25 -60 -25
-75 0 -15 -4 -31 -10 -34 -5 -3 -10 -24 -10 -45 0 -21 -4 -42 -10 -45 -5 -3
-10 -28 -10 -55 0 -27 -5 -52 -10 -55 -6 -3 -10 -31 -10 -61 0 -31 -6 -64 -15
-77 -9 -14 -13 -40 -11 -72 2 -29 -2 -61 -10 -77 -8 -15 -14 -56 -14 -92 0
-36 -5 -68 -10 -71 -6 -4 -10 -55 -10 -120 0 -65 -4 -116 -10 -120 -6 -4 -10
-55 -10 -120 0 -65 -4 -116 -10 -120 -13 -8 -13 -162 0 -170 6 -3 10 -52 10
-110 0 -58 4 -107 10 -110 6 -3 10 -48 10 -100 0 -52 4 -97 10 -100 6 -3 10
-16 10 -28 0 -12 7 -31 15 -41 8 -10 12 -23 9 -28 -3 -5 1 -20 10 -33 9 -13
16 -40 16 -59 0 -19 5 -38 10 -41 5 -3 10 -15 10 -25 0 -11 9 -35 20 -55 11
-20 20 -42 20 -51 0 -8 11 -35 25 -60 14 -25 25 -50 25 -57 0 -7 9 -32 20 -55
11 -22 20 -47 20 -54 0 -17 52 -120 66 -133 7 -5 29 -43 49 -83 20 -39 41 -75
46 -78 5 -3 20 -29 34 -57 13 -29 47 -74 75 -102 27 -27 50 -54 50 -59 0 -5
39 -52 88 -103 156 -166 193 -210 198 -239 3 -16 9 -33 14 -39 4 -5 10 -30 13
-55 13 -98 20 -125 35 -138 20 -15 2279 -17 3667 -2 501 5 1052 10 1225 11
177 0 322 5 332 10 17 9 18 43 18 549 0 507 1 540 18 541 60 4 179 -4 187 -12
5 -5 34 -9 65 -9 32 -1 63 -7 74 -15 12 -9 42 -15 72 -15 29 0 56 -5 59 -10 3
-6 28 -10 55 -10 27 0 52 -4 55 -10 3 -5 44 -10 90 -10 46 0 87 -5 90 -10 4
-6 73 -10 174 -10 118 0 171 -4 179 -12 19 -19 258 -20 296 -2 20 10 69 14
157 14 74 0 130 4 134 10 3 6 33 10 65 10 32 0 62 5 65 10 3 6 19 10 34 10 18
0 38 12 61 35 19 19 39 35 45 35 14 0 75 62 75 76 0 6 9 19 20 29 11 10 20 22
20 28 0 5 10 22 23 37 24 30 43 61 99 165 35 64 38 77 38 147 0 45 4 78 10 78
6 0 10 132 10 375 0 243 -4 375 -10 375 -5 0 -10 26 -10 57 0 53 -6 83 -34
158 -6 17 -11 35 -12 41 -1 5 -11 30 -23 54 -11 24 -21 50 -21 57 0 7 -4 21
-9 31 -5 9 -17 42 -27 72 -51 154 -275 535 -453 769 -31 40 -67 88 -81 106
-35 47 -96 118 -161 189 -97 107 -179 206 -179 218 0 6 -12 38 -26 72 -14 33
-30 70 -34 81 -24 61 -66 166 -83 205 -11 25 -26 61 -34 80 -19 45 -114 234
-141 280 -96 167 -178 293 -252 385 -22 28 -54 68 -71 90 -17 22 -78 90 -137
150 -241 248 -505 427 -812 549 -52 21 -104 42 -115 47 -65 27 -231 79 -255
79 -16 0 -32 5 -35 10 -3 6 -24 10 -46 10 -21 0 -47 4 -57 9 -9 6 -33 13 -53
16 -32 5 -43 15 -82 73 -57 85 -130 154 -198 187 -29 14 -57 25 -62 25 -6 0
-34 11 -64 25 l-53 26 0 69 c0 38 -4 72 -10 75 -6 3 -10 48 -10 100 0 89 1 95
26 114 15 12 37 21 50 21 12 0 26 5 29 10 3 6 23 10 43 11 37 0 50 7 132 64
24 17 50 35 59 40 9 6 33 25 54 43 20 17 44 32 52 32 8 0 15 7 15 15 0 8 16
32 35 54 19 21 35 47 35 58 0 10 5 24 11 30 15 15 15 109 0 127 -8 10 -10 145
-9 497 l3 484 30 3 c34 3 91 28 100 42 3 6 31 22 60 36 30 14 57 29 60 34 3 4
34 23 70 41 36 18 72 41 82 51 9 10 24 18 33 18 20 0 190 172 190 192 0 9 7
21 15 28 31 26 45 73 45 155 l0 82 -54 52 c-30 28 -64 51 -75 51 -11 0 -36 9
-56 20 -20 11 -41 20 -48 20 -7 0 -37 11 -65 25 -29 14 -70 25 -91 25 -22 0
-43 5 -46 10 -3 6 -37 10 -74 10 -37 0 -71 4 -77 9 -5 5 -45 12 -89 15 -44 3
-129 9 -190 13 -117 8 -135 14 -135 42 0 20 -171 191 -192 191 -7 0 -43 29
-78 65 -35 36 -70 65 -76 65 -6 0 -17 6 -23 14 -11 13 -33 26 -108 64 -150 77
-207 102 -232 102 -16 0 -33 5 -36 10 -3 6 -37 10 -75 10 -38 0 -72 5 -75 10
-4 6 -85 10 -211 10 -129 0 -204 -4 -204 -10z m1160 -1313 c23 -75 32 -87 66
-87 11 0 29 -10 40 -21 10 -12 36 -35 58 -50 30 -22 42 -26 57 -18 11 5 19 15
19 22 1 18 47 67 63 67 11 0 15 -61 21 -342 4 -189 11 -377 16 -418 5 -41 9
-137 10 -212 0 -188 28 -175 -356 -169 -77 2 -158 -2 -180 -7 -21 -6 -61 -16
-89 -23 -27 -6 -104 -29 -170 -51 -190 -63 -276 -72 -449 -50 -88 12 -184 53
-253 109 -42 34 -132 160 -173 242 -12 25 -28 51 -35 58 -16 15 -41 17 -50 3
-11 -18 -58 -11 -134 20 -103 42 -129 60 -202 138 -71 75 -122 160 -169 285
-29 72 -32 90 -28 155 7 106 54 161 146 170 46 4 55 0 153 -58 57 -34 113 -74
125 -88 21 -25 21 -25 63 -9 23 9 56 17 74 17 54 0 61 10 48 71 -8 37 -8 65
-1 89 5 19 10 45 10 58 0 13 11 39 24 58 l24 36 163 0 c90 0 165 -4 166 -9 2
-5 -13 -28 -33 -51 -27 -31 -32 -43 -21 -47 14 -6 104 20 123 36 7 6 61 -8
145 -37 128 -44 135 -45 164 -30 78 40 121 68 151 97 l33 32 57 -52 c35 -31
62 -47 67 -42 11 11 -16 125 -33 147 -23 26 1 34 108 34 59 0 114 4 122 10 23
14 36 -5 60 -83z m-1345 -1000 c8 -16 15 -36 15 -43 0 -7 5 -14 12 -16 8 -3
14 -38 18 -99 5 -87 8 -99 43 -156 38 -62 149 -171 189 -186 20 -7 38 -15 124
-53 74 -33 176 -64 256 -80 46 -9 115 -22 155 -30 40 -8 83 -14 97 -14 21 0
25 -5 30 -47 15 -118 26 -320 26 -473 0 -151 -2 -175 -25 -246 -14 -43 -25
-82 -25 -86 0 -4 -18 -36 -41 -72 -42 -67 -66 -82 -129 -78 -14 1 -132 4 -264
8 l-238 6 6 60 c6 45 3 73 -10 112 -28 80 -126 225 -192 283 -68 60 -190 121
-275 137 l-59 11 6 105 c21 363 26 458 32 658 5 140 11 225 18 231 6 4 49 28
96 52 47 24 86 47 88 51 6 14 32 -5 47 -35z m-1860 -1077 c-3 -5 -10 -10 -16
-10 -5 0 -9 5 -9 10 0 6 7 10 16 10 8 0 12 -4 9 -10z m-175 -90 c0 -5 -4 -10
-10 -10 -5 0 -10 5 -10 10 0 6 5 10 10 10 6 0 10 -4 10 -10z m484 -39 c21 -5
61 -23 88 -40 56 -35 176 -132 177 -143 1 -4 17 -32 36 -62 l35 -55 0 -126 c0
-69 -4 -133 -9 -143 -11 -23 -32 -82 -38 -111 -3 -13 -37 -57 -75 -96 -126
-134 -285 -186 -442 -147 -22 6 -53 13 -68 16 -15 4 -33 12 -40 19 -7 7 -33
27 -58 44 -50 34 -89 75 -139 144 -52 73 -78 256 -50 348 29 94 84 184 145
238 67 59 106 83 135 83 10 0 20 4 23 9 3 4 31 13 63 19 32 7 67 14 78 16 24
5 85 -1 139 -13z m1293 4 c36 -8 78 -24 93 -35 16 -11 31 -20 35 -20 4 0 22
-12 40 -27 18 -16 52 -45 77 -65 28 -23 57 -61 78 -103 34 -66 34 -68 32 -193
-1 -69 -6 -130 -12 -136 -5 -5 -10 -20 -10 -32 0 -13 -4 -26 -10 -29 -5 -3
-10 -15 -10 -26 0 -10 -6 -29 -12 -41 -15 -25 -160 -168 -170 -168 -4 0 -38
-14 -75 -31 -57 -26 -79 -31 -152 -31 -49 -1 -95 3 -108 10 -12 7 -33 12 -48
12 -29 0 -134 67 -178 113 -61 66 -115 146 -122 183 -13 71 -17 256 -6 267 6
6 11 19 11 29 0 10 4 26 9 36 5 9 15 30 22 47 23 49 134 160 186 184 78 38 85
41 153 54 93 19 105 19 177 2z m1488 -376 c7 -10 -8 -82 -25 -124 -12 -30 -48
-171 -57 -223 -3 -18 -9 -35 -14 -38 -5 -3 -9 -14 -9 -25 0 -10 -4 -27 -9 -37
-10 -20 -26 -67 -48 -137 -8 -27 -19 -58 -24 -67 -5 -10 -9 -25 -9 -33 0 -8
-4 -23 -9 -33 -5 -9 -12 -25 -15 -34 -3 -10 -14 -18 -25 -18 -14 0 -29 19 -53
68 -18 37 -36 69 -40 70 -5 2 -8 10 -8 17 0 15 -41 92 -71 137 -11 14 -19 30
-19 35 0 12 -23 23 -170 84 -30 12 -59 26 -64 31 -6 4 -18 8 -28 8 -10 0 -26
4 -36 9 -9 5 -28 13 -42 19 -14 5 -41 17 -62 26 -20 9 -41 16 -48 16 -6 0 -10
10 -8 21 3 21 7 22 103 19 248 -6 435 5 500 30 11 4 37 13 58 20 46 14 157 81
157 94 0 13 50 76 60 76 5 0 12 -5 15 -11z m-1539 -874 c-5 -15 -76 -22 -88
-9 -3 3 5 24 18 47 13 23 24 50 24 59 0 9 8 18 18 20 14 3 19 -7 26 -49 4 -29
6 -60 2 -68z m-1276 56 c0 -35 -5 -62 -12 -68 -19 -15 -98 -4 -98 13 0 8 4 14
8 14 4 0 15 12 24 28 21 35 56 72 68 72 6 0 10 -26 10 -59z m-487 0 c11 -2 8
-71 -3 -71 -6 0 -18 4 -28 9 -21 11 -62 27 -84 35 -58 18 30 39 115 27z m2263
-5 c20 -8 8 -26 -17 -26 -10 0 -28 -4 -39 -10 -11 -5 -29 -14 -40 -20 -27 -14
-27 -14 -32 20 -3 20 0 34 9 39 15 8 95 6 119 -3z m-1146 -161 c0 -8 -12 -21
-27 -29 -16 -8 -41 -26 -57 -41 -16 -14 -34 -24 -40 -22 -10 3 -18 86 -9 100
2 4 33 7 69 7 50 0 64 -3 64 -15z m-602 -64 c4 -77 -7 -82 -70 -29 -29 25 -61
48 -70 51 -10 4 -18 13 -18 22 0 13 12 15 78 13 l77 -3 3 -54z m1212 47 c0
-17 -107 -91 -120 -83 -8 5 -8 22 -1 88 2 13 121 8 121 -5z m-1720 -52 c0 -19
-5 -36 -11 -38 -15 -5 -129 51 -129 63 0 5 32 9 70 9 l70 0 0 -34z m2260 19
c0 -8 -7 -15 -15 -15 -8 0 -30 -9 -50 -20 -52 -29 -65 -26 -65 15 l0 35 65 0
c51 0 65 -3 65 -15z m-2314 -164 c27 -1 32 -5 36 -31 7 -47 -3 -52 -57 -24
-63 31 -74 42 -56 53 7 5 21 7 30 6 9 -2 30 -4 47 -4z m2314 -11 c0 -10 -76
-60 -97 -63 -21 -2 -23 2 -23 42 0 28 2 30 48 33 51 3 72 0 72 -12z m-1840
-24 c0 -19 -4 -37 -9 -40 -5 -3 -11 -20 -14 -38 -20 -114 -41 -178 -58 -178
-5 0 -7 61 -5 136 3 147 6 154 59 154 24 0 27 -4 27 -34z m1303 -12 c3 -3 2
-16 -3 -27 -15 -41 -50 -162 -52 -185 -2 -12 -7 -23 -13 -22 -6 0 -11 49 -13
120 l-3 120 39 0 c21 0 41 -3 45 -6z m-593 -279 c0 -38 -13 -44 -46 -21 -11 8
-37 17 -57 21 -22 4 -37 13 -37 21 0 11 17 14 70 14 l70 0 0 -35z m641 -44 c4
-200 3 -231 -3 -231 -5 0 -8 5 -8 10 0 6 -7 10 -16 10 -8 0 -25 5 -37 12 -12
7 -28 13 -35 14 -22 4 -22 5 -29 131 l-6 120 67 -1 66 0 1 -65z m-775 41 c5
-5 32 -17 59 -26 28 -10 59 -21 70 -26 11 -5 54 -21 95 -35 91 -32 289 -104
385 -138 39 -14 115 -42 170 -62 103 -37 133 -55 221 -128 61 -50 575 -474
648 -534 28 -22 138 -113 245 -201 215 -177 179 -159 376 -182 103 -12 194
-23 440 -55 110 -14 236 -30 280 -36 44 -5 114 -14 155 -19 41 -6 111 -14 155
-20 44 -5 168 -21 275 -35 107 -14 231 -30 275 -35 99 -11 184 -22 440 -55
110 -14 234 -30 275 -35 41 -5 86 -12 100 -15 67 -16 381 -87 420 -95 19 -4
49 -10 65 -14 28 -7 26 -4 -25 44 -54 50 -168 114 -233 130 -18 5 -81 21 -142
35 -143 35 -135 33 -135 45 0 16 503 13 644 -5 104 -13 129 -20 215 -61 l97
-47 23 -61 c12 -33 34 -90 48 -126 14 -36 29 -74 33 -85 4 -11 18 -45 29 -75
38 -96 74 -354 72 -520 -2 -205 -13 -288 -55 -425 -45 -145 -48 -152 -134
-290 l-68 -110 -74 -7 c-145 -13 -601 -13 -675 0 -38 7 -149 24 -245 38 -96
14 -197 32 -225 39 -27 8 -86 23 -130 35 -200 53 -279 79 -480 160 -11 4 -36
13 -55 20 -19 7 -48 18 -65 25 -16 7 -57 22 -90 35 -33 12 -69 26 -80 30 -11
5 -54 21 -95 36 -84 30 -772 377 -865 435 -33 21 -117 73 -187 116 -70 43
-182 113 -248 156 l-120 79 -83 -13 c-45 -7 -109 -13 -142 -13 -117 -1 -331
26 -445 55 -63 17 -140 37 -170 45 -128 33 -366 174 -502 296 -73 66 -79 69
-115 63 -34 -5 -110 -13 -305 -31 -36 -4 -71 -9 -76 -13 -6 -4 -7 -25 -1 -56
11 -69 11 -125 -1 -125 -15 0 -120 77 -191 139 -59 54 -67 65 -82 123 -19 70
-13 146 13 158 26 13 62 27 190 75 250 93 285 108 303 129 23 28 18 70 -9 74
-19 3 -471 -119 -493 -132 -11 -7 -35 22 -50 60 -19 49 -19 185 0 214 13 20
62 39 250 101 l234 76 -2 39 c-4 52 -19 66 -63 54 -19 -5 -87 -21 -150 -35
-63 -14 -133 -30 -155 -35 -22 -6 -55 -11 -74 -13 -31 -2 -37 2 -58 38 -21 35
-23 48 -18 104 8 89 25 117 77 129 24 6 77 19 118 30 41 11 111 30 155 42 137
36 142 38 149 68 3 15 8 37 12 48 5 20 -7 28 -110 79 l-115 57 -63 -40 c-138
-87 -238 -153 -243 -162 -4 -6 -19 -10 -36 -10 l-29 0 1 128 0 127 166 105
c91 58 171 110 177 117 13 14 38 17 52 5z m94 -352 c3 -4 14 -9 25 -11 16 -4
21 -13 23 -55 3 -57 0 -59 -80 -74 l-38 -6 -1 35 c0 20 -2 55 -5 79 -9 66 -2
76 38 56 18 -9 35 -20 38 -24z m50 -481 c0 -38 -23 -62 -61 -63 -16 -1 -29 -4
-29 -8 0 -5 -4 -8 -10 -8 -5 0 -10 21 -10 46 0 41 2 46 20 41 11 -3 20 -1 20
3 0 9 22 17 53 19 13 1 17 -7 17 -30z m3394 -84 c3 -8 12 -15 19 -15 32 0 78
-35 167 -127 108 -112 143 -155 178 -221 14 -26 29 -48 33 -50 5 -2 9 -10 9
-18 0 -17 -43 -29 -67 -19 -10 4 -63 11 -118 16 -270 23 -315 28 -325 34 -6 3
-54 9 -107 11 -53 3 -105 10 -114 15 -10 5 -56 9 -103 9 -47 0 -87 4 -90 9 -5
8 -82 13 -420 30 -109 5 -131 9 -140 24 -14 23 14 47 55 47 15 0 31 5 34 10 3
6 21 10 40 10 19 0 36 4 39 9 3 5 20 11 38 14 80 14 104 20 116 30 12 9 63 23
130 34 18 3 35 9 38 14 3 5 20 9 39 9 19 0 37 5 40 10 3 6 18 10 33 10 15 1
38 7 52 15 14 8 37 14 52 15 15 0 29 4 32 9 3 5 22 12 41 15 19 3 51 9 70 12
19 3 38 10 41 15 3 5 20 9 38 9 19 0 39 7 46 15 8 9 29 15 55 15 29 0 45 -5
49 -15z m-3368 -342 c9 -33 -6 -57 -37 -61 -13 -2 -30 -8 -36 -14 -25 -20 -44
-1 -41 39 3 35 5 38 38 41 19 2 39 8 45 13 15 15 24 10 31 -18z m58 -540 c3
-43 22 -161 41 -263 49 -253 135 -510 357 -1059 167 -417 186 -458 299 -655
67 -115 162 -291 211 -390 l90 -181 -53 -3 c-28 -2 -55 0 -59 5 -4 4 -51 87
-103 183 -52 96 -147 271 -212 389 -64 118 -146 282 -182 365 -36 83 -83 192
-105 241 -88 201 -229 592 -282 780 -49 177 -114 484 -130 618 l-6 47 64 0 63
0 7 -77z m556 -133 c0 -5 6 -10 13 -10 8 0 28 -7 45 -16 27 -13 32 -21 33 -52
3 -130 45 -361 98 -537 79 -265 197 -534 391 -895 43 -80 134 -262 201 -405
67 -143 149 -301 180 -351 32 -51 61 -104 65 -119 l7 -27 -49 7 c-27 3 -52 9
-56 13 -13 13 -211 396 -300 582 -50 102 -135 263 -190 358 -222 382 -434 972
-453 1260 -3 48 -8 113 -11 145 -4 47 -2 57 11 57 8 0 15 -4 15 -10z m-1442
-65 c7 -14 12 -30 12 -35 0 -6 -34 -26 -75 -44 -68 -32 -172 -99 -285 -185
-74 -56 -207 -210 -194 -224 4 -3 31 9 60 28 30 19 56 35 59 35 3 0 28 15 57
33 29 18 71 41 93 51 71 31 199 98 228 118 42 30 60 20 73 -37 39 -169 82
-318 135 -458 32 -86 49 -132 95 -257 15 -41 39 -102 54 -135 15 -33 42 -94
60 -135 87 -201 143 -318 183 -383 33 -55 31 -71 -15 -90 -33 -15 -108 -49
-248 -114 -73 -34 -114 -47 -235 -73 -33 -7 -85 -19 -115 -27 -90 -23 -295
-46 -451 -50 l-147 -4 -88 62 c-49 34 -125 94 -169 134 -44 39 -93 83 -109 96
-79 67 -300 433 -334 554 -25 89 -62 254 -73 325 -6 41 -15 85 -20 98 -5 13
-9 46 -9 75 0 56 -8 48 95 107 17 9 91 54 165 100 74 46 149 91 166 100 17 10
40 23 50 29 11 6 55 25 99 42 44 17 94 37 110 44 168 75 561 217 650 235 81
16 111 12 123 -15z m526 -59 c46 -30 87 -59 90 -65 4 -6 33 -11 65 -11 39 0
63 -5 71 -15 6 -8 23 -69 36 -137 14 -68 40 -163 58 -213 19 -49 59 -160 91
-245 31 -85 71 -195 90 -245 18 -49 38 -106 44 -125 6 -19 22 -70 36 -112 14
-42 25 -83 25 -90 0 -8 -58 -60 -129 -116 -179 -139 -166 -133 -196 -97 -14
17 -35 50 -46 75 -12 25 -50 105 -85 179 -35 73 -64 135 -64 137 0 5 -126 272
-140 295 -21 39 -131 431 -160 574 -6 33 -16 78 -20 100 -24 109 -28 99 65
138 33 14 66 26 73 26 7 1 50 -23 96 -53z m750 -3 c58 -32 66 -41 71 -72 4
-20 10 -56 15 -81 5 -25 14 -74 21 -110 6 -36 25 -110 41 -165 17 -55 33 -113
38 -130 9 -36 45 -137 90 -255 46 -121 46 -121 4 -152 -20 -15 -66 -54 -102
-85 -36 -32 -70 -58 -76 -58 -23 0 -241 590 -306 830 -10 39 -28 103 -39 142
-12 40 -21 79 -21 86 0 8 32 26 73 41 39 15 79 31 87 36 24 14 34 12 104 -27z
m415 -182 c37 -28 69 -42 114 -51 34 -7 80 -16 102 -20 213 -44 276 -53 393
-57 72 -3 132 -8 132 -12 0 -4 -98 -73 -217 -153 -120 -80 -256 -174 -302
-208 -69 -52 -85 -60 -96 -49 -7 8 -31 68 -54 134 -22 66 -52 154 -67 195 -14
41 -35 107 -45 145 -10 39 -21 80 -25 93 -9 31 5 28 65 -17z"/>
<path d="M4915 8495 c-38 -30 -94 -67 -123 -81 -43 -21 -51 -28 -41 -40 18
-22 125 -19 155 5 21 17 28 17 76 5 31 -8 64 -26 83 -44 17 -16 35 -30 41 -30
5 0 27 16 47 35 31 29 44 35 82 35 l45 0 -6 43 c-3 23 -13 61 -21 85 -12 33
-21 42 -39 42 -12 0 -26 -4 -29 -10 -3 -5 -33 -10 -65 -10 -32 0 -62 5 -65 10
-3 6 -21 10 -38 10 -23 0 -51 -15 -102 -55z"/>
<path d="M4891 8180 c-118 -60 -131 -71 -131 -106 0 -29 27 -38 56 -19 13 8
30 15 39 15 8 0 15 5 15 10 0 6 8 10 18 10 10 0 22 4 28 9 5 5 29 16 53 24 38
12 51 12 95 1 59 -16 112 -18 120 -5 3 5 17 11 30 13 19 4 33 -3 57 -28 37
-38 49 -36 49 9 0 26 -10 43 -48 80 -26 26 -55 47 -65 47 -9 0 -33 -9 -53 -21
-28 -15 -43 -18 -58 -11 -41 19 -77 32 -84 31 -4 -1 -58 -27 -121 -59z"/>
<path d="M4852 7932 c-29 -26 -52 -50 -52 -54 0 -18 91 -3 142 23 23 12 238
12 238 0 0 -9 61 -41 80 -41 7 0 10 19 8 58 l-3 57 -180 2 -180 3 -53 -48z"/>
<path d="M1970 6556 c-6 -8 -10 -25 -8 -38 4 -32 52 -38 68 -9 22 43 -29 83
-60 47z"/>
<path d="M2160 6550 c-15 -28 4 -60 34 -60 32 0 50 24 42 55 -5 20 -13 25 -36
25 -19 0 -33 -7 -40 -20z"/>
<path d="M1798 6429 c-38 -22 -9 -85 32 -71 32 11 39 42 14 66 -18 19 -23 19
-46 5z"/>
<path d="M2169 6335 c-76 -67 -88 -74 -126 -75 -36 0 -46 -5 -67 -33 -35 -46
-33 -73 9 -113 40 -40 47 -41 100 -11 39 22 40 24 40 78 0 55 1 57 70 134 39
43 72 82 73 86 9 24 -23 2 -99 -66z"/>
<path d="M2359 6349 c-9 -18 -7 -25 15 -47 l26 -26 20 21 c24 26 26 59 4 67
-30 11 -53 6 -65 -15z"/>
<path d="M1708 6229 c-33 -19 -13 -79 26 -79 10 0 36 32 36 45 0 14 -27 45
-38 45 -4 0 -15 -5 -24 -11z"/>
<path d="M2392 6171 c-18 -11 -11 -61 11 -75 24 -15 51 4 55 39 4 28 -10 45
-38 45 -8 0 -21 -4 -28 -9z"/>
<path d="M3280 6555 c-26 -32 13 -81 48 -59 34 22 22 74 -18 74 -10 0 -23 -7
-30 -15z"/>
<path d="M3474 6545 c-8 -31 10 -55 43 -55 15 0 27 8 32 23 13 32 -4 57 -39
57 -23 0 -31 -5 -36 -25z"/>
<path d="M3106 6424 c-22 -21 -20 -40 6 -58 15 -11 26 -12 40 -5 24 13 23 55
-1 69 -25 13 -27 13 -45 -6z"/>
<path d="M3531 6360 c-81 -71 -95 -80 -131 -80 -30 0 -45 -6 -65 -27 -33 -36
-32 -75 2 -113 33 -38 74 -39 119 -5 31 24 33 28 27 73 l-5 49 76 81 c66 71
88 102 72 102 -3 0 -45 -36 -95 -80z"/>
<path d="M3682 6358 c-18 -18 -15 -42 7 -62 16 -15 22 -15 40 -4 27 17 33 35
21 59 -12 21 -50 25 -68 7z"/>
<path d="M3022 6224 c-12 -8 -22 -21 -22 -29 0 -8 10 -21 22 -29 28 -20 58 -4
58 29 0 33 -30 49 -58 29z"/>
<path d="M3706 6184 c-30 -30 -13 -74 29 -74 43 0 61 50 28 76 -24 18 -38 17
-57 -2z"/>
</g>
</svg>
